<?xml version="1.0" standalone="no"?><!DOCTYPE svg PUBLIC "-//W3C//DTD SVG 1.1//EN" "http://www.w3.org/Graphics/SVG/1.1/DTD/svg11.dtd"><svg class="icon" width="320px" height="320.00px" viewBox="0 0 1024 1024" version="1.1" xmlns="http://www.w3.org/2000/svg"><path d="M511.570211 64.760956c-246.706845 0-446.708971 200.042035-446.708971 446.790836 0 246.746754 200.002127 446.783673 446.708971 446.783673S958.279183 758.299569 958.279183 511.552815c0-246.749824-200.002127-446.791859-446.708972-446.791859z m230.625588 581.354578c0 24.658609-20.75265 44.838208-46.121433 44.838207H327.064011c-25.368784 0-46.119387-20.179598-46.119387-44.838207l0.208754-221.576491 224.889957 119.277593a11.833513 11.833513 0 0 0 11.053753 0l225.097688-119.39118v221.690078zM511.679705 501.700423L281.181007 376.575658c0.223081-24.475438 20.660552-44.431955 45.886074-44.431955h369.007285c25.182542 0 45.823652 19.881816 46.121433 44.312228L511.679705 501.700423z"  /></svg>